<svg width="22" height="22" viewBox="0 0 22 22" fill="none" xmlns="http://www.w3.org/2000/svg">
<path d="M10.8006 2.02441C5.96196 2.02441 2.02515 5.96123 2.02515 10.7999C2.02515 15.6386 5.96196 19.5754 10.8006 19.5754C15.6393 19.5754 19.5761 15.6386 19.5761 10.7999C19.5761 5.96123 15.6393 2.02441 10.8006 2.02441ZM10.8006 3.37449C14.9096 3.37449 18.226 6.69095 18.226 10.7999C18.226 14.9089 14.9096 18.2253 10.8006 18.2253C6.69168 18.2253 3.37522 14.9089 3.37522 10.7999C3.37522 6.69095 6.69168 3.37449 10.8006 3.37449ZM8.24899 7.27621L7.27694 8.24826L9.83128 10.7999L7.27829 13.3515L8.25034 14.3236L10.8006 11.7699L13.3523 14.3216L14.3243 13.3515L11.7707 10.7999L14.3223 8.24826L13.3523 7.27621L10.8006 9.83055L8.24899 7.27756V7.27621Z" fill="black"/>
</svg>
