<svg width="13" height="12" viewBox="0 0 13 12" fill="none" xmlns="http://www.w3.org/2000/svg">
<path d="M6.50078 0C3.18715 0 0.501555 2.49375 0.501555 5.57143C0.501555 6.84643 0.967901 8.01429 1.74124 8.95446C1.39206 10.0098 0.665597 10.9045 0.653879 10.9152C0.499212 11.1027 0.45703 11.3759 0.546081 11.6116C0.635132 11.8473 0.839012 12 1.06398 12C2.5052 12 3.64177 11.3116 4.32372 10.7598C5.00097 11.0036 5.73213 11.1429 6.50078 11.1429C9.81441 11.1429 12.5 8.64911 12.5 5.57143C12.5 2.49375 9.81441 0 6.50078 0ZM6.50078 9.85714C5.87508 9.85714 5.25641 9.74732 4.66352 9.53304L4.13155 9.34018L3.67458 9.70982C3.33947 9.98036 2.88015 10.283 2.3271 10.4866C2.49817 10.1625 2.66456 9.79821 2.79345 9.40982L3.04185 8.65714L2.5591 8.07321C2.13494 7.55625 1.62641 6.70179 1.62641 5.57143C1.62641 3.20893 3.81285 1.28571 6.50078 1.28571C9.18871 1.28571 11.3751 3.20893 11.3751 5.57143C11.3751 7.93393 9.18871 9.85714 6.50078 9.85714Z" fill="#4375FF"/>
</svg>
