<svg width="18" height="16" viewBox="0 0 18 16" fill="none" xmlns="http://www.w3.org/2000/svg">
<path d="M9.00117 0C4.03072 0 0.00233296 3.28759 0.00233296 7.345C0.00233296 9.02587 0.701852 10.5655 1.86186 11.805C1.3381 13.1963 0.248395 14.3757 0.230819 14.3898C-0.0011822 14.637 -0.0644553 14.9972 0.0691212 15.308C0.202698 15.6187 0.508517 15.82 0.845974 15.82C3.0078 15.82 4.71266 14.9125 5.73557 14.185C6.75146 14.5064 7.84819 14.69 9.00117 14.69C13.9716 14.69 18 11.4024 18 7.345C18 3.28759 13.9716 0 9.00117 0ZM9.00117 12.995C8.06262 12.995 7.13461 12.8502 6.24527 12.5677L5.44733 12.3135L4.76187 12.8008C4.2592 13.1574 3.57023 13.5565 2.74065 13.8248C2.99726 13.3976 3.24683 12.9173 3.44017 12.4053L3.81278 11.413L3.08865 10.6432C2.45241 9.96166 1.68961 8.83519 1.68961 7.345C1.68961 4.23044 4.96927 1.695 9.00117 1.695C13.0331 1.695 16.3127 4.23044 16.3127 7.345C16.3127 10.4596 13.0331 12.995 9.00117 12.995Z" fill="#575757"/>
</svg>
