<svg width="16" height="17" viewBox="0 0 16 17" fill="none" xmlns="http://www.w3.org/2000/svg">
<g clip-path="url(#clip0_481_53)">
<path d="M1 16.4998H15V14.4998H1V16.4998ZM13 8.49982H10.92C10.4119 8.49982 10 8.08794 10 7.57982V7.28419C10 6.42888 10.2775 5.61513 10.6706 4.85544C10.9553 4.30513 11.0738 3.65576 10.9534 2.96732C10.7419 1.75544 9.75125 0.757943 8.53906 0.547005C6.64437 0.217318 5 1.66638 5 3.49982C5 3.94232 5.0975 4.36044 5.27156 4.73669C5.68813 5.63826 6 6.58419 6 7.57763V7.57982C6 8.08794 5.58812 8.49982 5.08 8.49982H3C1.34312 8.49982 0 9.84294 0 11.4998V12.4998C0 13.052 0.447812 13.4998 1 13.4998H15C15.5522 13.4998 16 13.052 16 12.4998V11.4998C16 9.84294 14.6569 8.49982 13 8.49982Z" fill="current" fill-opacity="0.6"/>
</g>
<defs>
<clipPath id="clip0_481_53">
<rect width="16" height="16" fill="white" transform="translate(0 0.5)"/>
</clipPath>
</defs>
</svg>
