<svg width="15" height="12" viewBox="0 0 18 15" fill="none" xmlns="http://www.w3.org/2000/svg">
<path d="M0.9 9C0.833333 9 0.776667 8.98 0.73 8.94C0.69 8.89333 0.67 8.83667 0.67 8.77V8.05C0.67 7.98333 0.69 7.93 0.73 7.89C0.776667 7.84333 0.833333 7.82 0.9 7.82H1.62C1.68667 7.82 1.74 7.84333 1.78 7.89C1.82667 7.93 1.85 7.98333 1.85 8.05V8.77C1.85 8.83667 1.82667 8.89333 1.78 8.94C1.74 8.98 1.68667 9 1.62 9H0.9ZM5.8707 9C5.80404 9 5.74737 8.98 5.7007 8.94C5.6607 8.89333 5.6407 8.83667 5.6407 8.77V8.05C5.6407 7.98333 5.6607 7.93 5.7007 7.89C5.74737 7.84333 5.80404 7.82 5.8707 7.82H6.5907C6.65737 7.82 6.7107 7.84333 6.7507 7.89C6.79737 7.93 6.8207 7.98333 6.8207 8.05V8.77C6.8207 8.83667 6.79737 8.89333 6.7507 8.94C6.7107 8.98 6.65737 9 6.5907 9H5.8707ZM10.8414 9C10.7747 9 10.7181 8.98 10.6714 8.94C10.6314 8.89333 10.6114 8.83667 10.6114 8.77V8.05C10.6114 7.98333 10.6314 7.93 10.6714 7.89C10.7181 7.84333 10.7747 7.82 10.8414 7.82H11.5614C11.6281 7.82 11.6814 7.84333 11.7214 7.89C11.7681 7.93 11.7914 7.98333 11.7914 8.05V8.77C11.7914 8.83667 11.7681 8.89333 11.7214 8.94C11.6814 8.98 11.6281 9 11.5614 9H10.8414Z" fill="black"/>
<path d="M0.73 8.94L-0.0292563 9.59079L0.0208045 9.6492L0.0792086 9.69926L0.73 8.94ZM1.78 7.89L1.02074 8.54079L1.0708 8.5992L1.12921 8.64926L1.78 7.89ZM1.78 8.94L1.07289 8.23289H1.07289L1.78 8.94ZM0.9 8C0.967708 8 1.05071 8.01038 1.14032 8.04201C1.23109 8.07405 1.31257 8.12227 1.38079 8.18074L0.0792086 9.69926C0.323002 9.90822 0.616409 10 0.9 10V8ZM1.48926 8.28921C1.54773 8.35743 1.59595 8.43891 1.62799 8.52968C1.65962 8.61929 1.67 8.70229 1.67 8.77H-0.33C-0.33 9.05359 -0.238222 9.347 -0.0292563 9.59079L1.48926 8.28921ZM1.67 8.77V8.05H-0.33V8.77H1.67ZM1.67 8.05C1.67 8.11653 1.65994 8.20816 1.62133 8.31112C1.58156 8.41716 1.51877 8.51545 1.43711 8.59711L0.0228933 7.18289C-0.237842 7.44363 -0.33 7.76908 -0.33 8.05H1.67ZM1.43711 8.59711C1.37434 8.65988 1.29114 8.71981 1.18825 8.76218C1.08556 8.80446 0.985732 8.82 0.9 8.82V6.82C0.571144 6.82 0.259226 6.94656 0.0228933 7.18289L1.43711 8.59711ZM0.9 8.82H1.62V6.82H0.9V8.82ZM1.62 8.82C1.53531 8.82 1.42598 8.80476 1.30918 8.75366C1.19024 8.70162 1.09312 8.62523 1.02074 8.54079L2.53926 7.23921C2.2918 6.95051 1.95063 6.82 1.62 6.82V8.82ZM1.12921 8.64926C1.04477 8.57688 0.96838 8.47976 0.916343 8.36082C0.865245 8.24402 0.85 8.13469 0.85 8.05H2.85C2.85 7.71937 2.71949 7.3782 2.43079 7.13074L1.12921 8.64926ZM0.85 8.05V8.77H2.85V8.05H0.85ZM0.85 8.77C0.85 8.68427 0.865539 8.58444 0.907822 8.48175C0.950188 8.37886 1.01012 8.29566 1.07289 8.23289L2.48711 9.64711C2.72344 9.41077 2.85 9.09886 2.85 8.77H0.85ZM1.07289 8.23289C1.15455 8.15123 1.25284 8.08844 1.35888 8.04867C1.46184 8.01006 1.55347 8 1.62 8V10C1.90092 10 2.22637 9.90784 2.48711 9.64711L1.07289 8.23289ZM1.62 8H0.9V10H1.62V8ZM5.7007 8.94L4.94145 9.59079L4.99151 9.6492L5.04991 9.69926L5.7007 8.94ZM6.7507 7.89L5.99145 8.54079L6.04151 8.5992L6.09991 8.64926L6.7507 7.89ZM6.7507 8.94L6.0436 8.23289L6.7507 8.94ZM5.8707 8C5.93841 8 6.02141 8.01038 6.11102 8.04201C6.20179 8.07405 6.28327 8.12227 6.35149 8.18074L5.04991 9.69926C5.2937 9.90822 5.58711 10 5.8707 10V8ZM6.45996 8.28921C6.51844 8.35743 6.56666 8.43891 6.59869 8.52968C6.63032 8.61929 6.6407 8.70229 6.6407 8.77H4.6407C4.6407 9.05359 4.73248 9.347 4.94145 9.59079L6.45996 8.28921ZM6.6407 8.77V8.05H4.6407V8.77H6.6407ZM6.6407 8.05C6.6407 8.11653 6.63064 8.20816 6.59203 8.31112C6.55227 8.41716 6.48947 8.51545 6.40781 8.59711L4.9936 7.18289C4.73286 7.44363 4.6407 7.76908 4.6407 8.05H6.6407ZM6.40781 8.59711C6.34504 8.65988 6.26184 8.71981 6.15895 8.76218C6.05627 8.80446 5.95644 8.82 5.8707 8.82V6.82C5.54185 6.82 5.22993 6.94656 4.9936 7.18289L6.40781 8.59711ZM5.8707 8.82H6.5907V6.82H5.8707V8.82ZM6.5907 8.82C6.50601 8.82 6.39668 8.80476 6.27988 8.75366C6.16094 8.70162 6.06382 8.62523 5.99145 8.54079L7.50996 7.23921C7.2625 6.95051 6.92133 6.82 6.5907 6.82V8.82ZM6.09991 8.64926C6.01547 8.57688 5.93908 8.47976 5.88705 8.36082C5.83595 8.24402 5.8207 8.13469 5.8207 8.05H7.8207C7.8207 7.71937 7.69019 7.3782 7.40149 7.13074L6.09991 8.64926ZM5.8207 8.05V8.77H7.8207V8.05H5.8207ZM5.8207 8.77C5.8207 8.68427 5.83624 8.58444 5.87853 8.48175C5.92089 8.37886 5.98083 8.29566 6.0436 8.23289L7.45781 9.64711C7.69414 9.41077 7.8207 9.09886 7.8207 8.77H5.8207ZM6.0436 8.23289C6.12526 8.15123 6.22354 8.08844 6.32958 8.04867C6.43254 8.01006 6.52417 8 6.5907 8V10C6.87163 10 7.19707 9.90784 7.45781 9.64711L6.0436 8.23289ZM6.5907 8H5.8707V10H6.5907V8ZM10.6714 8.94L9.91215 9.59079L9.96221 9.6492L10.0206 9.69926L10.6714 8.94ZM11.7214 7.89L10.9621 8.54079L11.0122 8.5992L11.0706 8.64926L11.7214 7.89ZM11.7214 8.94L11.0143 8.23289L11.7214 8.94ZM10.8414 8C10.9091 8 10.9921 8.01038 11.0817 8.04201C11.1725 8.07405 11.254 8.12227 11.3222 8.18074L10.0206 9.69926C10.2644 9.90822 10.5578 10 10.8414 10V8ZM11.4307 8.28921C11.4891 8.35743 11.5374 8.43891 11.5694 8.52968C11.601 8.61929 11.6114 8.70229 11.6114 8.77H9.61141C9.61141 9.05359 9.70318 9.347 9.91215 9.59079L11.4307 8.28921ZM11.6114 8.77V8.05H9.61141V8.77H11.6114ZM11.6114 8.05C11.6114 8.11653 11.6013 8.20816 11.5627 8.31112C11.523 8.41716 11.4602 8.51545 11.3785 8.59711L9.9643 7.18289C9.70356 7.44363 9.61141 7.76908 9.61141 8.05H11.6114ZM11.3785 8.59711C11.3157 8.65988 11.2325 8.71981 11.1297 8.76218C11.027 8.80446 10.9271 8.82 10.8414 8.82V6.82C10.5126 6.82 10.2006 6.94656 9.9643 7.18289L11.3785 8.59711ZM10.8414 8.82H11.5614V6.82H10.8414V8.82ZM11.5614 8.82C11.4767 8.82 11.3674 8.80476 11.2506 8.75366C11.1316 8.70162 11.0345 8.62523 10.9621 8.54079L12.4807 7.23921C12.2332 6.95051 11.892 6.82 11.5614 6.82V8.82ZM11.0706 8.64926C10.9862 8.57688 10.9098 8.47976 10.8577 8.36082C10.8067 8.24402 10.7914 8.13469 10.7914 8.05H12.7914C12.7914 7.71937 12.6609 7.3782 12.3722 7.13074L11.0706 8.64926ZM10.7914 8.05V8.77H12.7914V8.05H10.7914ZM10.7914 8.77C10.7914 8.68427 10.8069 8.58444 10.8492 8.48175C10.8916 8.37886 10.9515 8.29566 11.0143 8.23289L12.4285 9.64711C12.6648 9.41077 12.7914 9.09886 12.7914 8.77H10.7914ZM11.0143 8.23289C11.096 8.15123 11.1942 8.08844 11.3003 8.04867C11.4032 8.01006 11.4949 8 11.5614 8V10C11.8423 10 12.1678 9.90784 12.4285 9.64711L11.0143 8.23289ZM11.5614 8H10.8414V10H11.5614V8Z" fill="#575757"/>
</svg>
