<svg width="22" height="22" viewBox="0 0 22 22" fill="none" xmlns="http://www.w3.org/2000/svg">
<path d="M1.06111 9.88889H3.22222C3.81159 9.88889 4.37682 10.123 4.79357 10.5398C5.21032 10.9565 5.44444 11.5217 5.44444 12.1111V13.2222C5.44444 13.8116 5.67857 14.3768 6.09532 14.7936C6.51207 15.2103 7.0773 15.4444 7.66667 15.4444C8.25604 15.4444 8.82127 15.6786 9.23801 16.0953C9.65476 16.5121 9.88889 17.0773 9.88889 17.6667V20.9389L1.06111 9.88889ZM6.55556 2.03889V3.77778C6.55556 4.51449 6.84821 5.22103 7.36915 5.74196C7.89008 6.2629 8.59662 6.55556 9.33333 6.55556H9.88889C10.4783 6.55556 11.0435 6.78968 11.4602 7.20643C11.877 7.62318 12.1111 8.18841 12.1111 8.77778C12.1111 9.36715 12.3452 9.93238 12.762 10.3491C13.1787 10.7659 13.744 11 14.3333 11C14.9227 11 15.4879 10.7659 15.9047 10.3491C16.3214 9.93238 16.5556 9.36715 16.5556 8.77778C16.5556 8.18841 16.7897 7.62318 17.2064 7.20643C17.6232 6.78968 18.1884 6.55556 18.7778 6.55556H19.96L6.55556 2.03889ZM14.3333 20.4311V17.6667C14.3333 17.0773 14.5675 16.5121 14.9842 16.0953C15.401 15.6786 15.9662 15.4444 16.5556 15.4444H19.96L14.3333 20.4311ZM21 11C21 12.3132 20.7413 13.6136 20.2388 14.8268C19.7362 16.0401 18.9997 17.1425 18.0711 18.0711C17.1425 18.9997 16.0401 19.7362 14.8268 20.2388C13.6136 20.7413 12.3132 21 11 21C9.68678 21 8.38642 20.7413 7.17317 20.2388C5.95991 19.7362 4.85752 18.9997 3.92893 18.0711C3.00035 17.1425 2.26375 16.0401 1.7612 14.8268C1.25866 13.6136 1 12.3132 1 11C1 8.34783 2.05357 5.8043 3.92893 3.92893C5.8043 2.05357 8.34783 1 11 1C13.6522 1 16.1957 2.05357 18.0711 3.92893C19.9464 5.8043 21 8.34783 21 11Z" stroke="current" stroke-opacity="0.9" stroke-linecap="round" stroke-linejoin="round"/>
</svg>
