<svg width="16" height="17" viewBox="0 0 16 17" fill="none" xmlns="http://www.w3.org/2000/svg">
<path d="M13.5 1.5H2.5C2.10218 1.5 1.72064 1.65804 1.43934 1.93934C1.15804 2.22064 1 2.60218 1 3L1 14C1 14.3978 1.15804 14.7794 1.43934 15.0607C1.72064 15.342 2.10218 15.5 2.5 15.5H6.78906V10.7403H4.82031V8.5H6.78906V6.7925C6.78906 4.85031 7.94531 3.7775 9.71625 3.7775C10.5644 3.7775 11.4513 3.92875 11.4513 3.92875V5.835H10.4741C9.51125 5.835 9.21094 6.4325 9.21094 7.04531V8.5H11.3603L11.0166 10.7403H9.21094V15.5H13.5C13.8978 15.5 14.2794 15.342 14.5607 15.0607C14.842 14.7794 15 14.3978 15 14V3C15 2.60218 14.842 2.22064 14.5607 1.93934C14.2794 1.65804 13.8978 1.5 13.5 1.5Z" fill="current" fill-opacity="0.6"/>
</svg>
