<svg width="23" height="19" viewBox="0 0 23 19" fill="none" xmlns="http://www.w3.org/2000/svg">
<path d="M11.9091 14.4493C9.30176 14.4493 7.19114 12.4312 6.99692 9.87365L3.39098 7.08687C2.91695 7.68156 2.48073 8.31028 2.12873 8.99778C2.05009 9.15333 2.00912 9.32518 2.00912 9.49948C2.00912 9.67378 2.05009 9.84563 2.12873 10.0012C3.99289 13.6384 7.68339 16.0993 11.9091 16.0993C12.8341 16.0993 13.7265 15.9618 14.5866 15.7397L12.8029 14.3596C12.5083 14.4165 12.2091 14.4465 11.9091 14.4493ZM22.6967 16.4465L18.8965 13.5095C20.0509 12.5367 21.0003 11.344 21.6895 10.0008C21.7681 9.84529 21.8091 9.67343 21.8091 9.49914C21.8091 9.32484 21.7681 9.15298 21.6895 8.99743C19.8253 5.36022 16.1348 2.89931 11.9091 2.89931C10.1393 2.90145 8.39825 3.347 6.84498 4.19525L2.47179 0.815153C2.41477 0.770777 2.34955 0.738074 2.27988 0.718911C2.21021 0.699749 2.13745 0.694503 2.06575 0.703473C1.99405 0.712444 1.92482 0.735455 1.86202 0.771191C1.79921 0.806928 1.74407 0.854689 1.69973 0.911746L1.02495 1.7804C0.935436 1.89555 0.895326 2.04154 0.91344 2.18626C0.931554 2.33099 1.00641 2.46259 1.12154 2.55212L21.3464 18.1835C21.4034 18.2278 21.4687 18.2605 21.5383 18.2797C21.608 18.2989 21.6808 18.3041 21.7525 18.2951C21.8242 18.2862 21.8934 18.2632 21.9562 18.2274C22.019 18.1917 22.0741 18.1439 22.1185 18.0869L22.7936 17.2182C22.8831 17.103 22.9231 16.957 22.905 16.8123C22.8868 16.6676 22.8119 16.536 22.6967 16.4465ZM16.3813 11.5652L15.0304 10.5209C15.1441 10.1921 15.2045 9.84721 15.2091 9.49931C15.2158 8.98996 15.103 8.48614 14.8796 8.02831C14.6563 7.57049 14.3287 7.17142 13.9232 6.86316C13.5177 6.55491 13.0455 6.34606 12.5446 6.25339C12.0437 6.16073 11.528 6.18682 11.0391 6.32959C11.2464 6.61047 11.3585 6.95023 11.3591 7.29931C11.354 7.41547 11.3362 7.53073 11.3062 7.64306L8.77582 5.68747C9.65479 4.95294 10.7636 4.55016 11.9091 4.54931C12.5592 4.54895 13.2031 4.67674 13.8038 4.92537C14.4045 5.174 14.9504 5.5386 15.4101 5.99832C15.8698 6.45805 16.2344 7.00387 16.483 7.6046C16.7317 8.20532 16.8595 8.84916 16.8591 9.49931C16.8591 10.2428 16.6773 10.9358 16.3813 11.5656V11.5652Z" fill="#4375FF" fill-opacity="0.65"/>
</svg>
