<svg width="16" height="17" viewBox="0 0 16 17" fill="none" xmlns="http://www.w3.org/2000/svg">
<path d="M8.00303 4.90586C6.01553 4.90586 4.4124 6.50898 4.4124 8.49648C4.4124 10.484 6.01553 12.0871 8.00303 12.0871C9.99053 12.0871 11.5937 10.484 11.5937 8.49648C11.5937 6.50898 9.99053 4.90586 8.00303 4.90586ZM8.00303 10.8309C6.71865 10.8309 5.66865 9.78398 5.66865 8.49648C5.66865 7.20898 6.71553 6.16211 8.00303 6.16211C9.29053 6.16211 10.3374 7.20898 10.3374 8.49648C10.3374 9.78398 9.2874 10.8309 8.00303 10.8309ZM12.578 4.75898C12.578 5.22461 12.203 5.59648 11.7405 5.59648C11.2749 5.59648 10.903 5.22148 10.903 4.75898C10.903 4.29648 11.278 3.92148 11.7405 3.92148C12.203 3.92148 12.578 4.29648 12.578 4.75898ZM14.9562 5.60898C14.903 4.48711 14.6468 3.49336 13.8249 2.67461C13.0062 1.85586 12.0124 1.59961 10.8905 1.54336C9.73428 1.47773 6.26865 1.47773 5.1124 1.54336C3.99365 1.59648 2.9999 1.85273 2.17803 2.67148C1.35615 3.49023 1.10303 4.48398 1.04678 5.60586C0.981152 6.76211 0.981152 10.2277 1.04678 11.384C1.0999 12.5059 1.35615 13.4996 2.17803 14.3184C2.9999 15.1371 3.99053 15.3934 5.1124 15.4496C6.26865 15.5152 9.73428 15.5152 10.8905 15.4496C12.0124 15.3965 13.0062 15.1402 13.8249 14.3184C14.6437 13.4996 14.8999 12.5059 14.9562 11.384C15.0218 10.2277 15.0218 6.76523 14.9562 5.60898ZM13.4624 12.6246C13.2187 13.2371 12.7468 13.709 12.1312 13.9559C11.2093 14.3215 9.02178 14.2371 8.00303 14.2371C6.98428 14.2371 4.79365 14.3184 3.8749 13.9559C3.2624 13.7121 2.79053 13.2402 2.54365 12.6246C2.17803 11.7027 2.2624 9.51523 2.2624 8.49648C2.2624 7.47773 2.18115 5.28711 2.54365 4.36836C2.7874 3.75586 3.25928 3.28398 3.8749 3.03711C4.79678 2.67148 6.98428 2.75586 8.00303 2.75586C9.02178 2.75586 11.2124 2.67461 12.1312 3.03711C12.7437 3.28086 13.2155 3.75273 13.4624 4.36836C13.828 5.29023 13.7437 7.47773 13.7437 8.49648C13.7437 9.51523 13.828 11.7059 13.4624 12.6246Z" fill="current" fill-opacity="0.6"/>
</svg>
