<svg width="21" height="20" viewBox="0 0 21 20" fill="none" xmlns="http://www.w3.org/2000/svg">
<path d="M10.5001 1.66699C5.90008 1.66699 2.16675 5.40033 2.16675 10.0003C2.16675 14.6003 5.90008 18.3337 10.5001 18.3337C15.1001 18.3337 18.8334 14.6003 18.8334 10.0003C18.8334 5.40033 15.1001 1.66699 10.5001 1.66699ZM10.5001 16.667C6.81675 16.667 3.83341 13.6837 3.83341 10.0003C3.83341 8.45866 4.35841 7.04199 5.24175 5.91699L14.5834 15.2587C13.4194 16.1739 11.9808 16.67 10.5001 16.667V16.667ZM15.7584 14.0837L6.41675 4.74199C7.5808 3.8268 9.01934 3.33065 10.5001 3.33366C14.1834 3.33366 17.1667 6.31699 17.1667 10.0003C17.1667 11.542 16.6417 12.9587 15.7584 14.0837Z" fill="white" fill-opacity="0.9"/>
</svg>
