<svg width="20" height="18" viewBox="0 0 20 18" fill="none" xmlns="http://www.w3.org/2000/svg">
<path d="M17.612 2.3986C17.1722 1.9552 16.65 1.60347 16.0752 1.36349C15.5005 1.12352 14.8844 1 14.2623 1C13.6401 1 13.0241 1.12352 12.4493 1.36349C11.8746 1.60347 11.3524 1.9552 10.9126 2.3986L9.99977 3.31838L9.08699 2.3986C8.19858 1.50339 6.99364 1.00046 5.73725 1.00046C4.48085 1.00046 3.27591 1.50339 2.38751 2.3986C1.4991 3.29382 1 4.50799 1 5.77401C1 7.04003 1.4991 8.2542 2.38751 9.14941L3.30029 10.0692L9.99977 16.82L16.6992 10.0692L17.612 9.14941C18.0521 8.70622 18.4011 8.18002 18.6393 7.60085C18.8774 7.02169 19 6.40092 19 5.77401C19 5.1471 18.8774 4.52633 18.6393 3.94716C18.4011 3.368 18.0521 2.84179 17.612 2.3986Z" stroke="#575757" stroke-width="1.97688" stroke-linecap="round" stroke-linejoin="round"/>
</svg>
