<svg width="28" height="28" viewBox="0 0 28 28" fill="none" xmlns="http://www.w3.org/2000/svg">
<path d="M13.9999 14.2798C15.7674 14.2798 17.1999 12.8384 17.1999 11.0598C17.1999 9.2813 15.7674 7.83984 13.9999 7.83984C12.2324 7.83984 10.7999 9.2813 10.7999 11.0598C10.7999 12.8384 12.2324 14.2798 13.9999 14.2798ZM16.2399 15.0848H15.8224C15.2674 15.3414 14.6499 15.4873 13.9999 15.4873C13.3499 15.4873 12.7349 15.3414 12.1774 15.0848H11.7599C9.9049 15.0848 8.3999 16.5992 8.3999 18.4658V19.5123C8.3999 20.179 8.9374 20.7198 9.5999 20.7198H18.3999C19.0624 20.7198 19.5999 20.179 19.5999 19.5123V18.4658C19.5999 16.5992 18.0949 15.0848 16.2399 15.0848Z" fill="#4375FF"/>
<circle cx="14" cy="14" r="14" fill="#4375FF" fill-opacity="0.12"/>
</svg>
