<svg width="22" height="22" viewBox="0 0 22 22" fill="none" xmlns="http://www.w3.org/2000/svg">
<path d="M16.7143 5.44444C16.7143 6.62318 16.1122 7.75365 15.0406 8.58714C13.969 9.42064 12.5155 9.88889 11 9.88889C9.48448 9.88889 8.03103 9.42064 6.95939 8.58714C5.88775 7.75365 5.28571 6.62318 5.28571 5.44444C5.28571 4.2657 5.88775 3.13524 6.95939 2.30175C8.03103 1.46825 9.48448 1 11 1C12.5155 1 13.969 1.46825 15.0406 2.30175C16.1122 3.13524 16.7143 4.2657 16.7143 5.44444ZM11 13.2222C8.34783 13.2222 5.8043 14.0417 3.92893 15.5003C2.05357 16.9589 1 18.9372 1 21H21C21 18.9372 19.9464 16.9589 18.0711 15.5003C16.1957 14.0417 13.6522 13.2222 11 13.2222Z" stroke="current" stroke-opacity="0.9" stroke-linecap="round" stroke-linejoin="round"/>
</svg>
