<svg width="18" height="18" viewBox="0 0 18 18" fill="none" xmlns="http://www.w3.org/2000/svg">
<path fill-rule="evenodd" clip-rule="evenodd" d="M1.96875 1.68755C1.89416 1.68755 1.82262 1.71719 1.76988 1.76993C1.71713 1.82268 1.6875 1.89422 1.6875 1.96881V12.6567C1.6875 12.8119 1.8135 12.9379 1.96875 12.9379H4.21875C4.44253 12.9379 4.65714 13.0268 4.81537 13.185C4.97361 13.3433 5.0625 13.5579 5.0625 13.7817V16.2455L8.1225 13.1854C8.28058 13.0271 8.49505 12.9381 8.71875 12.9379H16.0312C16.1058 12.9379 16.1774 12.9083 16.2301 12.8555C16.2829 12.8028 16.3125 12.7312 16.3125 12.6567V1.96881C16.3125 1.89422 16.2829 1.82268 16.2301 1.76993C16.1774 1.71719 16.1058 1.68755 16.0312 1.68755H1.96875ZM0 1.96881C0 0.882028 0.882 0 1.96875 0H16.0312C17.118 0 18 0.882028 18 1.96881V12.6567C18 13.1788 17.7926 13.6796 17.4234 14.0488C17.0542 14.418 16.5534 14.6255 16.0312 14.6255H9.0675L6.17287 17.5202C5.94364 17.7493 5.65163 17.9053 5.33375 17.9685C5.01586 18.0317 4.68638 17.9993 4.38694 17.8753C4.0875 17.7512 3.83154 17.5412 3.65142 17.2718C3.47131 17.0023 3.37511 16.6855 3.375 16.3614V14.6255H1.96875C1.44661 14.6255 0.945846 14.418 0.576634 14.0488C0.207421 13.6796 0 13.1788 0 12.6567L0 1.96881ZM10.125 10.1253C10.125 10.4237 10.0065 10.7099 9.7955 10.9208C9.58452 11.1318 9.29837 11.2504 9 11.2504C8.70163 11.2504 8.41548 11.1318 8.2045 10.9208C7.99353 10.7099 7.875 10.4237 7.875 10.1253C7.875 9.82694 7.99353 9.54079 8.2045 9.3298C8.41548 9.11882 8.70163 9.00029 9 9.00029C9.29837 9.00029 9.58452 9.11882 9.7955 9.3298C10.0065 9.54079 10.125 9.82694 10.125 10.1253ZM9.84375 4.21888C9.84375 3.9951 9.75486 3.78048 9.59662 3.62224C9.43839 3.464 9.22378 3.37511 9 3.37511C8.77622 3.37511 8.56161 3.464 8.40338 3.62224C8.24514 3.78048 8.15625 3.9951 8.15625 4.21888V7.03147C8.15625 7.25526 8.24514 7.46987 8.40338 7.62811C8.56161 7.78635 8.77622 7.87525 9 7.87525C9.22378 7.87525 9.43839 7.78635 9.59662 7.62811C9.75486 7.46987 9.84375 7.25526 9.84375 7.03147V4.21888Z" fill="white" fill-opacity="0.9"/>
</svg>
