<svg width="25" height="25" viewBox="0 0 51 51" fill="none" xmlns="http://www.w3.org/2000/svg">
<path d="M24.0206 13.8137L27.8387 13.8332L27.8217 17.1582L24.0036 17.1387L24.0206 13.8137ZM40.0904 0.199844L11.9089 0.0557703C5.8863 0.0249805 0.978273 4.24994 0.951476 9.49154L0.82614 34.0079C0.799343 39.2495 5.66164 43.5244 11.6866 43.5552L21.066 43.6031L25.6986 50.1269L30.3954 43.6508L39.868 43.6993C45.8907 43.7301 50.7987 39.5051 50.8255 34.2635L50.9508 9.74716C50.9776 4.50556 46.1131 0.230634 40.0904 0.199844ZM15.8401 17.0948L19.8855 17.1155L19.9025 13.7926L15.8571 13.772L15.8754 10.1887L19.9208 10.2094L19.9388 6.69274L24.0569 6.71379L24.0389 10.2304L27.857 10.2499L27.875 6.73331L31.9931 6.75437L31.9752 10.271L36.0183 10.2917L36 13.8749L31.9546 13.8543L31.9376 17.1792L35.983 17.1999L35.9647 20.7832L31.9193 20.7625L31.9013 24.2791L27.7854 24.2581L27.8034 20.7415L23.9853 20.7219L23.9673 24.2386L19.8492 24.2175L19.8671 20.7009L15.8217 20.6802L15.8401 17.0969L15.8401 17.0948ZM44.7473 28.2073C44.7473 28.2073 39.2654 37.0878 26.3588 37.0218L25.827 37.0149L25.2974 37.0164C12.3885 36.9504 6.99777 28.0144 6.99777 28.0144C6.99777 28.0144 6.64846 27.4334 6.65167 26.8063C6.65153 26.5098 6.73476 26.2184 6.89333 25.9601C7.0519 25.7018 7.28046 25.4854 7.55695 25.3318C7.87311 25.1463 8.23121 25.0291 8.60417 24.9892C10.1594 24.8513 11.0549 25.7372 11.7907 26.7472C12.6032 27.8618 17.2964 32.7462 25.8477 32.9754C34.4008 32.8337 39.146 27.9975 39.9699 26.8912C40.7136 25.8909 41.6522 25.0123 43.1719 25.1659C43.4967 25.1988 43.8462 25.3069 44.2156 25.5192C44.8795 25.9038 45.1359 26.4406 45.1103 27.0029C45.0538 27.8277 44.7473 28.2094 44.7473 28.2094L44.7473 28.2073Z" fill="#4375FF" fill-opacity="0.8"/>
</svg>
