<svg width="16" height="17" viewBox="0 0 16 17" fill="none" xmlns="http://www.w3.org/2000/svg">
<path d="M14.3553 5.24149C14.3655 5.38362 14.3655 5.52577 14.3655 5.6679C14.3655 10.0029 11.066 14.9978 5.03553 14.9978C3.17766 14.9978 1.45178 14.4597 0 13.5258C0.263969 13.5562 0.51775 13.5664 0.791875 13.5664C2.32484 13.5664 3.73603 13.0486 4.86294 12.1654C3.42131 12.1349 2.21319 11.1907 1.79694 9.89124C2 9.92168 2.20303 9.94199 2.41625 9.94199C2.71066 9.94199 3.00509 9.90137 3.27919 9.83033C1.77666 9.52574 0.649719 8.20596 0.649719 6.61205V6.57146C1.08625 6.81512 1.59391 6.9674 2.13194 6.98768C1.24869 6.39884 0.670031 5.39377 0.670031 4.25671C0.670031 3.64759 0.832437 3.08921 1.11672 2.6019C2.73094 4.59174 5.15734 5.89121 7.87812 6.03337C7.82737 5.78971 7.79691 5.53593 7.79691 5.28212C7.79691 3.47499 9.25884 2.00293 11.0761 2.00293C12.0202 2.00293 12.873 2.39887 13.472 3.03846C14.2131 2.89634 14.9238 2.62221 15.5532 2.24659C15.3096 3.00802 14.7918 3.64762 14.1116 4.05368C14.7715 3.98265 15.4111 3.79987 15.9999 3.54609C15.5533 4.1958 14.9949 4.77446 14.3553 5.24149Z" fill="current" fill-opacity="0.6"/>
</svg>
