<svg width="20" height="20" viewBox="0 0 20 20" fill="none" xmlns="http://www.w3.org/2000/svg">
<path d="M18.425 9.5L19.85 8.075C20.0469 7.87812 20.0469 7.55938 19.85 7.3625L19.1375 6.65C18.9406 6.45312 18.6219 6.45312 18.425 6.65L17 8.075L15.575 6.65C15.3781 6.45312 15.0594 6.45312 14.8625 6.65L14.15 7.3625C13.9531 7.55938 13.9531 7.87812 14.15 8.075L15.575 9.5L14.15 10.925C13.9531 11.1219 13.9531 11.4406 14.15 11.6375L14.8625 12.35C15.0594 12.5469 15.3781 12.5469 15.575 12.35L17 10.925L18.425 12.35C18.6219 12.5469 18.9406 12.5469 19.1375 12.35L19.85 11.6375C20.0469 11.4406 20.0469 11.1219 19.85 10.925L18.425 9.5ZM7 10C9.20938 10 11 8.20937 11 6C11 3.79063 9.20938 2 7 2C4.79063 2 3 3.79063 3 6C3 8.20937 4.79063 10 7 10ZM9.8 11H9.27812C8.58437 11.3188 7.8125 11.5 7 11.5C6.1875 11.5 5.41875 11.3188 4.72188 11H4.2C1.88125 11 0 12.8813 0 15.2V16.5C0 17.3281 0.671875 18 1.5 18H12.5C13.3281 18 14 17.3281 14 16.5V15.2C14 12.8813 12.1187 11 9.8 11Z" fill="white" fill-opacity="0.9"/>
</svg>
